<?xml version="1.0" standalone="no"?>
<!DOCTYPE svg PUBLIC "-//W3C//DTD SVG 20010904//EN"
 "http://www.w3.org/TR/2001/REC-SVG-20010904/DTD/svg10.dtd">
<svg version="1.0" xmlns="http://www.w3.org/2000/svg"
 width="180.000000pt" height="180.000000pt" viewBox="0 0 180.000000 180.000000"
 preserveAspectRatio="xMidYMid meet">

<g transform="translate(0.000000,180.000000) scale(0.100000,-0.100000)"
fill="#000000" stroke="none">
<path d="M125 1524 c-14 -18 -25 -36 -25 -41 0 -11 250 -199 261 -196 11 4 16
-18 34 -142 2 -16 9 -57 14 -90 6 -33 13 -76 15 -95 3 -19 10 -64 16 -100 6
-36 13 -81 15 -100 1 -19 3 -38 4 -43 1 -4 12 0 27 9 29 20 52 7 39 -23 -12
-28 -14 -43 -5 -43 5 0 -2 -19 -15 -42 -53 -96 -136 -300 -133 -326 3 -26 5
-27 71 -30 65 -3 67 -4 67 -29 0 -15 -8 -35 -17 -46 -10 -11 -18 -35 -18 -58
0 -118 171 -124 178 -6 1 20 6 39 10 43 4 4 7 27 7 51 l0 43 248 0 247 0 1
-42 c4 -97 12 -130 36 -155 69 -68 183 9 149 100 -13 34 -24 34 -41 2 -9 -17
-20 -24 -34 -21 -12 2 -15 1 -8 -1 14 -5 16 -19 3 -28 -15 -8 -31 29 -31 69
l0 36 53 2 52 1 -55 7 -55 7 53 1 c28 1 52 7 52 12 0 6 17 10 38 10 60 0 76
26 44 68 -17 22 -25 23 -127 23 -60 0 -112 4 -115 9 -3 5 -70 10 -149 11 -110
1 -145 -2 -152 -12 -14 -23 -19 -4 -9 32 16 54 32 197 31 277 l0 72 49 0 c28
0 50 -4 50 -10 0 -5 -20 -10 -45 -10 -38 0 -45 -3 -45 -19 0 -16 9 -20 55 -23
l55 -3 0 33 c0 32 0 32 50 32 28 0 50 -4 50 -10 0 -5 -20 -10 -45 -10 -37 0
-45 -3 -45 -19 0 -17 9 -18 110 -17 95 1 110 3 110 18 0 39 11 48 61 48 37 0
49 -4 49 -15 0 -11 -12 -15 -50 -15 -35 0 -50 -4 -50 -13 0 -10 15 -13 55 -13
53 1 55 2 55 29 0 26 1 27 58 26 43 -1 51 -3 32 -9 -14 -4 -37 -8 -52 -9 -17
-1 -28 -7 -28 -15 0 -10 16 -15 55 -18 54 -3 55 -3 55 25 0 24 4 27 33 27 17
0 38 4 46 9 9 6 -75 7 -212 4 l-226 -6 6 22 c4 18 13 21 54 21 37 0 49 -4 49
-15 0 -8 5 -15 10 -15 6 0 10 6 10 14 0 10 13 16 38 19 l37 4 -37 1 c-37 2
-38 3 -38 42 l0 40 54 0 53 0 -4 -60 c-3 -40 -1 -60 6 -60 7 0 11 21 11 54 0
59 8 66 77 66 l33 0 -5 -62 c-3 -35 -3 -58 0 -52 3 6 18 10 33 9 19 -2 20 -1
5 2 -20 4 -23 10 -23 55 l0 51 39 -6 c21 -2 45 -1 52 4 9 5 -20 9 -75 9 -76 0
-87 2 -82 16 3 9 6 38 6 65 0 48 1 49 30 49 l31 0 -6 -62 c-5 -46 -4 -59 4
-48 6 8 11 34 11 57 0 48 8 56 45 47 25 -6 26 -8 21 -63 -4 -39 -3 -50 3 -36
5 11 10 34 10 51 1 16 6 35 13 42 7 7 10 12 8 12 -3 0 -79 7 -170 15 -91 8
-170 15 -176 15 -6 0 -9 12 -6 30 2 16 9 28 15 27 6 -1 13 8 15 21 2 12 8 22
13 22 5 0 9 9 9 20 0 20 -1 20 -25 4 -24 -16 -25 -15 -25 5 0 23 21 26 90 15
l35 -6 -2 -71 -1 -72 10 71 10 72 41 -5 c71 -8 69 -6 63 -80 -4 -46 -3 -61 3
-48 5 11 10 39 10 63 1 36 4 42 22 42 20 0 21 -4 17 -60 -2 -33 -1 -60 4 -60
7 0 11 12 22 70 3 14 3 1 1 -27 -2 -29 0 -53 4 -53 10 0 21 49 21 91 0 22 5
29 20 29 25 0 27 36 3 44 -58 18 -114 23 -121 10 -6 -11 -103 -2 -537 51 -292
36 -538 65 -547 65 -11 0 -15 5 -12 14 4 10 -23 36 -80 77 -47 35 -86 68 -86
74 0 6 -22 23 -50 37 l-49 26 -26 -34z m50 -25 c0 -7 -8 -15 -17 -17 -18 -3
-25 18 -11 32 10 10 28 1 28 -15z m155 -129 c0 -5 -2 -10 -4 -10 -3 0 -8 5
-11 10 -3 6 -1 10 4 10 6 0 11 -4 11 -10z m117 -58 c6 -4 17 -45 22 -91 6 -46
14 -87 17 -90 6 -6 1 52 -13 143 l-5 39 38 -6 c22 -4 49 -7 61 -7 19 0 22 -7
28 -57 3 -32 10 -74 14 -93 l7 -35 8 47 c8 54 32 73 30 24 -1 -47 -3 -52 -14
-36 -8 12 -10 11 -10 -7 0 -28 8 -29 26 -5 12 16 13 15 14 -5 0 -20 -5 -23
-40 -23 -32 0 -39 4 -38 18 4 49 0 53 -47 50 -25 -2 -45 -7 -45 -12 0 -4 16
-6 36 -4 27 3 38 0 45 -14 7 -14 6 -20 -6 -24 -17 -7 -122 0 -130 8 -3 3 -10
34 -15 69 -6 35 -12 76 -15 92 -5 27 7 35 32 19z m268 -33 c2 -2 1 -16 -2 -32
-5 -25 -9 -27 -43 -25 -35 3 -39 6 -42 37 l-4 33 43 -5 c24 -2 46 -6 48 -8z
m137 -18 c4 -3 8 -41 9 -83 1 -44 6 -78 12 -78 6 0 8 29 4 81 l-7 82 47 -7
c25 -3 54 -6 64 -6 15 0 19 -8 19 -35 0 -22 -6 -38 -14 -41 -26 -10 -26 -33
-1 -60 l25 -27 0 27 c0 16 4 25 10 21 6 -3 10 -1 10 4 0 6 -4 11 -10 11 -5 0
-10 20 -10 45 0 45 0 45 35 45 24 0 37 -6 45 -19 15 -28 13 -38 -10 -44 -14
-3 -20 -14 -20 -32 0 -18 6 -29 20 -32 11 -3 20 -9 20 -14 0 -18 -53 -21 -197
-10 -205 16 -222 19 -218 39 1 9 -2 22 -7 29 -6 7 1 18 22 33 l30 21 0 -28 c0
-42 11 -73 25 -73 7 0 12 8 10 18 -2 9 -6 47 -9 83 l-5 66 47 -5 c26 -2 50 -7
54 -11z m-235 -63 c-2 -13 -4 -3 -4 22 0 25 2 35 4 23 2 -13 2 -33 0 -45z
m130 -10 c-3 -7 -5 -2 -5 12 0 14 2 19 5 13 2 -7 2 -19 0 -25z m-37 18 c0 -2
-7 -6 -15 -10 -8 -3 -15 -1 -15 4 0 6 7 10 15 10 8 0 15 -2 15 -4z m437 -43
c-3 -10 -5 -2 -5 17 0 19 2 27 5 18 2 -10 2 -26 0 -35z m-663 -86 c17 -113 17
-117 -3 -117 -16 0 -20 11 -28 73 -5 39 -8 75 -6 79 8 17 33 -7 37 -35z m92
25 c17 -10 44 -80 44 -113 0 -25 -5 -29 -54 -43 -30 -9 -60 -16 -68 -16 -9 0
-10 -3 -2 -8 7 -4 15 -40 19 -79 6 -61 5 -73 -8 -73 -11 0 -17 20 -25 73 -13
97 -13 105 11 99 18 -5 19 -1 12 82 l-7 86 33 0 c19 0 39 -4 45 -8z m97 -65
c4 -39 2 -46 -9 -36 -15 12 -19 80 -7 93 9 9 10 5 16 -57z m67 4 c0 -40 -4
-50 -19 -54 -23 -6 -31 10 -31 64 0 35 3 39 25 39 23 0 25 -3 25 -49z m111 39
c17 0 19 -8 19 -75 0 -47 4 -75 11 -75 7 0 9 23 4 73 l-7 72 61 -3 61 -4 0
-75 0 -74 -117 3 c-118 3 -118 3 -120 28 l-2 25 8 -25 c7 -22 9 -23 16 -8 4
10 2 32 -4 49 -6 18 -11 48 -11 67 0 33 1 34 31 28 17 -3 40 -6 50 -6z m-94
-22 c-3 -8 -6 -5 -6 6 -1 11 2 17 5 13 3 -3 4 -12 1 -19z m381 15 c-10 -2 -28
-2 -40 0 -13 2 -5 4 17 4 22 1 32 -1 23 -4z m85 -10 c-7 -2 -19 -2 -25 0 -7 3
-2 5 12 5 14 0 19 -2 13 -5z m-586 -70 c-2 -16 -4 -5 -4 22 0 28 2 40 4 28 2
-13 2 -35 0 -50z m453 60 c-22 -9 -38 -35 -33 -53 4 -13 4 -13 -6 0 -8 11 -13
12 -22 3 -16 -16 -4 -41 23 -52 60 -22 88 -29 88 -20 0 5 9 9 19 9 11 0 33 11
49 25 34 28 41 26 36 -15 -2 -17 1 -30 6 -30 6 0 10 27 10 59 0 66 2 68 75 63
l43 -4 -4 -66 c-3 -47 -1 -60 5 -42 5 14 9 44 10 68 1 45 1 45 25 36 11 -4 16
-19 16 -48 0 -86 4 -84 -133 -79 -67 2 -159 6 -204 9 l-83 6 0 69 0 69 48 -1
c26 0 40 -3 32 -6z m40 -94 c0 -5 -4 -9 -10 -9 -5 0 -10 7 -10 16 0 8 5 12 10
9 6 -3 10 -10 10 -16z m-592 -113 c5 -37 5 -69 2 -71 -7 -4 -20 76 -20 124 0
45 10 15 18 -53z m30 52 c17 -35 34 -107 27 -118 -16 -25 -34 -8 -40 38 -3 26
-8 59 -10 75 -5 33 7 36 23 5z m122 2 c49 14 61 11 20 -5 -49 -19 -70 -18 -70
3 0 12 3 13 8 5 6 -10 17 -10 42 -3z m185 -1 c11 -17 -3 -23 -20 -9 -9 7 -18
10 -21 8 -3 -3 6 -15 20 -26 29 -22 36 -72 12 -72 -8 0 -18 5 -22 11 -3 6 -15
9 -25 6 -17 -5 -17 -3 -2 19 17 26 12 30 -18 14 -14 -8 -19 -21 -19 -55 0 -25
-3 -45 -7 -45 -5 0 -6 22 -5 50 3 38 8 51 23 55 11 4 19 15 19 27 0 17 -2 18
-15 8 -9 -8 -15 -8 -15 -2 0 6 6 13 13 15 23 10 76 7 82 -4z m94 5 c48 -10 37
-24 -19 -24 -31 0 -50 -4 -50 -11 0 -8 16 -10 50 -6 l50 6 0 -34 c0 -33 -2
-35 -37 -37 l-38 -1 38 -4 c22 -3 37 -9 37 -18 0 -9 -25 -15 -91 -20 -49 -4
-92 -5 -95 -2 -3 3 -1 14 5 25 12 22 61 19 61 -4 0 -8 5 -14 10 -14 6 0 10 6
10 14 0 8 3 16 8 19 4 2 1 2 -5 1 -9 -3 -13 14 -13 56 0 66 4 69 79 54z m151
-14 c0 -5 -22 -10 -50 -10 -27 0 -50 5 -50 10 0 6 23 10 50 10 28 0 50 -4 50
-10z m120 0 c0 -5 -22 -10 -50 -10 -27 0 -50 5 -50 10 0 6 23 10 50 10 28 0
50 -4 50 -10z m-495 -18 c-17 -16 -95 -42 -95 -33 0 5 19 16 43 24 52 18 64
20 52 9z m375 -32 c0 -29 -1 -30 -50 -30 -49 0 -50 1 -50 30 0 29 1 30 50 30
49 0 50 -1 50 -30z m120 0 c0 -29 -1 -30 -50 -30 -49 0 -50 1 -50 30 0 29 1
30 50 30 49 0 50 -1 50 -30z m-485 -9 c-6 -4 -31 -15 -57 -24 -36 -12 -48 -13
-48 -4 0 7 11 14 23 15 13 1 35 6 48 11 31 13 46 14 34 2z m-118 -37 c-3 -3
-12 -4 -19 -1 -8 3 -5 6 6 6 11 1 17 -2 13 -5z m103 -9 c-14 -8 -34 -14 -45
-14 -13 0 -8 5 15 14 46 18 61 18 30 0z m380 -5 c0 -17 -7 -20 -50 -20 -35 0
-50 4 -50 13 0 22 11 27 57 27 36 0 43 -3 43 -20z m-505 -20 c4 -6 -7 -10 -27
-9 -27 0 -30 2 -13 9 27 12 33 12 40 0z m-77 -7 c-10 -2 -26 -2 -35 0 -10 3
-2 5 17 5 19 0 27 -2 18 -5z m702 -17 c0 -10 -15 -15 -50 -18 -42 -2 -50 0
-50 15 0 14 9 17 50 17 36 0 50 -4 50 -14z m-687 -43 l2 -38 68 1 c37 0 64 -3
60 -7 -5 -3 -43 -30 -87 -59 -74 -49 -79 -51 -95 -35 -15 17 -15 17 1 12 13
-4 15 -2 11 10 -5 12 -3 14 7 8 9 -6 11 -4 5 4 -4 8 2 21 15 33 15 15 19 23
11 31 -6 6 -11 29 -11 51 0 50 11 41 13 -11z m81 41 c33 -13 17 -34 -24 -34
-33 0 -40 3 -40 20 0 21 30 27 64 14z m246 -9 c0 -13 -11 -16 -50 -14 -74 4
-64 27 13 28 27 1 37 -3 37 -14z m-213 -42 c-3 -10 -5 -4 -5 12 0 17 2 24 5
18 2 -7 2 -21 0 -30z m120 -5 c-3 -8 -6 -5 -6 6 -1 11 2 17 5 13 3 -3 4 -12 1
-19z m74 -167 l-16 -154 -102 2 c-79 2 -103 -1 -104 -11 0 -7 -2 -22 -4 -33
-2 -11 1 -23 8 -27 7 -4 3 -6 -9 -6 -19 2 -20 6 -13 32 13 46 14 46 -55 46
-48 0 -65 -4 -70 -15 -4 -12 3 -15 29 -15 32 0 35 -2 33 -27 -2 -25 -6 -28
-40 -28 -42 -1 -57 20 -39 54 17 30 13 39 -14 33 -19 -3 -25 0 -25 14 0 36 24
81 54 102 39 28 108 89 80 71 -12 -8 -36 -24 -53 -37 -17 -13 -31 -19 -31 -14
0 13 81 65 100 65 8 0 42 22 75 49 l60 49 71 -3 c60 -3 71 -1 66 12 -3 10 -2
12 5 5 6 -7 4 -62 -6 -164z m-353 25 c-2 -1 -11 -7 -20 -14 -14 -11 -16 -10
-11 7 3 12 11 17 19 14 8 -3 14 -6 12 -7z m-74 -171 c13 -19 13 -23 2 -19 -8
3 -16 14 -19 25 -7 25 -3 24 17 -6z m16 -35 c16 0 17 -3 7 -30 -10 -26 -16
-30 -42 -28 -24 2 -30 8 -32 28 -3 25 -3 25 7 3 13 -32 20 -29 11 5 -4 15 -5
35 -3 45 4 18 5 17 18 -2 9 -12 23 -21 34 -21z m544 -1 l207 2 -3 -23 c-2 -14
-11 -24 -23 -25 l-20 -3 20 9 c13 6 -33 10 -137 10 -95 1 -159 5 -163 11 -4 6
-11 8 -16 4 -6 -4 -6 -11 2 -20 10 -12 3 -14 -43 -14 l-54 0 4 36 c3 21 8 31
12 24 5 -9 62 -12 214 -11z m304 -16 l11 -33 -47 2 c-44 1 -44 2 -9 5 20 2 37
8 37 14 0 5 -17 10 -37 11 -37 1 -37 1 -5 5 21 3 32 10 32 20 0 21 5 15 18
-24z m-542 1 c-3 -9 -6 -20 -6 -25 0 -5 -20 -9 -45 -9 -45 0 -50 5 -39 34 4
11 19 16 51 16 37 0 44 -3 39 -16z m665 -11 c8 -22 6 -23 -45 -23 -40 0 -55 4
-60 16 -12 31 -6 35 45 32 43 -2 53 -7 60 -25z m-824 -19 c-3 -3 -12 -4 -19
-1 -8 3 -5 6 6 6 11 1 17 -2 13 -5z m21 -51 c-15 -2 -42 -2 -60 0 -18 2 -6 4
27 4 33 0 48 -2 33 -4z m12 -18 c0 -2 -8 -20 -17 -39 -12 -27 -22 -35 -37 -32
-12 2 -15 1 -8 -1 15 -5 12 -24 -3 -25 -13 0 -37 72 -31 89 5 12 96 20 96 8z"/>
<path d="M1407 1386 c10 -13 19 -23 21 -21 7 6 -19 45 -29 45 -5 0 -2 -11 8
-24z"/>
<path d="M1045 1327 c-74 -42 -61 -51 90 -71 75 -10 138 -16 140 -14 2 2 -3
17 -11 34 -34 69 -142 94 -219 51z"/>
<path d="M1432 1245 c0 -16 2 -22 5 -12 2 9 2 23 0 30 -3 6 -5 -1 -5 -18z"/>
<path d="M1433 1120 c0 -36 2 -50 4 -32 2 17 2 47 0 65 -2 17 -4 3 -4 -33z"/>
<path d="M1283 873 c9 -2 23 -2 30 0 6 3 -1 5 -18 5 -16 0 -22 -2 -12 -5z"/>
<path d="M1408 823 c-10 -2 -18 -9 -18 -14 0 -6 8 -5 20 1 11 6 20 13 20 15 0
3 -1 4 -2 4 -2 -1 -11 -3 -20 -6z"/>
</g>
</svg>
